<svg xmlns="http://www.w3.org/2000/svg" width="1520" height="980" viewBox="0 0 1520 980">
  <defs>
    <marker id="markerArr" markerWidth="8" markerHeight="7" refX="7" refY="3.5" orient="auto">
      <polygon points="0 0, 8 3.5, 0 7" fill="#555"/>
    </marker>
  </defs>
  <rect width="1520" height="980" fill="#F8FAFC"/>
  <rect x="195" y="55" width="1120" height="895" rx="8" fill="white" stroke="#1F4E79" stroke-width="2.5"/>
  <text x="755" y="85" text-anchor="middle" font-family="Arial,sans-serif" font-size="17" font-weight="bold" fill="#1F4E79">Guardião da Cozinha</text>
  <rect x="220" y="115" width="500" height="320" rx="6" fill="none" stroke="#9DC3E6" stroke-width="1.2" stroke-dasharray="8,4"/>
  <text x="228" y="130" font-family="Arial,sans-serif" font-size="11" fill="#2E74B5" font-style="italic">Gerenciamento de Categorias</text>
  <rect x="220" y="445" width="500" height="245" rx="6" fill="none" stroke="#9DC3E6" stroke-width="1.2" stroke-dasharray="8,4"/>
  <text x="228" y="460" font-family="Arial,sans-serif" font-size="11" fill="#2E74B5" font-style="italic">Gerenciamento de Movimentações</text>
  <rect x="728" y="115" width="565" height="320" rx="6" fill="none" stroke="#9DC3E6" stroke-width="1.2" stroke-dasharray="8,4"/>
  <text x="736" y="130" font-family="Arial,sans-serif" font-size="11" fill="#2E74B5" font-style="italic">Gerenciamento de Produtos</text>
  <rect x="728" y="445" width="565" height="370" rx="6" fill="none" stroke="#9DC3E6" stroke-width="1.2" stroke-dasharray="8,4"/>
  <text x="736" y="460" font-family="Arial,sans-serif" font-size="11" fill="#2E74B5" font-style="italic">Relatórios e Indicadores</text>
  <ellipse cx="755" cy="95" rx="135" ry="27" fill="#EBF3FB" stroke="#1F4E79" stroke-width="1.6"/>
  <text x="755" y="86" text-anchor="middle" dominant-baseline="middle" font-family="Arial,sans-serif" font-size="12" fill="#1F4E79">[RF001] Autenticar</text>
  <text x="755" y="104" text-anchor="middle" dominant-baseline="middle" font-family="Arial,sans-serif" font-size="12" fill="#1F4E79">Usuário</text>
  <ellipse cx="380" cy="175" rx="112" ry="27" fill="#EBF3FB" stroke="#1F4E79" stroke-width="1.6"/>
  <text x="380" y="166" text-anchor="middle" dominant-baseline="middle" font-family="Arial,sans-serif" font-size="12" fill="#1F4E79">[RF002] Cadastrar</text>
  <text x="380" y="184" text-anchor="middle" dominant-baseline="middle" font-family="Arial,sans-serif" font-size="12" fill="#1F4E79">Categoria</text>
  <ellipse cx="380" cy="250" rx="112" ry="27" fill="#EBF3FB" stroke="#1F4E79" stroke-width="1.6"/>
  <text x="380" y="241" text-anchor="middle" dominant-baseline="middle" font-family="Arial,sans-serif" font-size="12" fill="#1F4E79">[RF003] Consultar</text>
  <text x="380" y="259" text-anchor="middle" dominant-baseline="middle" font-family="Arial,sans-serif" font-size="12" fill="#1F4E79">Categoria</text>
  <ellipse cx="380" cy="325" rx="112" ry="27" fill="#EBF3FB" stroke="#1F4E79" stroke-width="1.6"/>
  <text x="380" y="316" text-anchor="middle" dominant-baseline="middle" font-family="Arial,sans-serif" font-size="12" fill="#1F4E79">[RF004] Atualizar</text>
  <text x="380" y="334" text-anchor="middle" dominant-baseline="middle" font-family="Arial,sans-serif" font-size="12" fill="#1F4E79">Categoria</text>
  <ellipse cx="380" cy="400" rx="112" ry="27" fill="#EBF3FB" stroke="#1F4E79" stroke-width="1.6"/>
  <text x="380" y="391" text-anchor="middle" dominant-baseline="middle" font-family="Arial,sans-serif" font-size="12" fill="#1F4E79">[RF005] Excluir</text>
  <text x="380" y="409" text-anchor="middle" dominant-baseline="middle" font-family="Arial,sans-serif" font-size="12" fill="#1F4E79">Categoria</text>
  <ellipse cx="340" cy="510" rx="125" ry="27" fill="#EBF3FB" stroke="#1F4E79" stroke-width="1.6"/>
  <text x="340" y="501" text-anchor="middle" dominant-baseline="middle" font-family="Arial,sans-serif" font-size="12" fill="#1F4E79">[RF010] Registrar</text>
  <text x="340" y="519" text-anchor="middle" dominant-baseline="middle" font-family="Arial,sans-serif" font-size="12" fill="#1F4E79">Entrada</text>
  <ellipse cx="340" cy="595" rx="110" ry="27" fill="#EBF3FB" stroke="#1F4E79" stroke-width="1.6"/>
  <text x="340" y="586" text-anchor="middle" dominant-baseline="middle" font-family="Arial,sans-serif" font-size="12" fill="#1F4E79">[RF011] Registrar</text>
  <text x="340" y="604" text-anchor="middle" dominant-baseline="middle" font-family="Arial,sans-serif" font-size="12" fill="#1F4E79">Saída</text>
  <ellipse cx="590" cy="552" rx="125" ry="27" fill="#EBF3FB" stroke="#1F4E79" stroke-width="1.6"/>
  <text x="590" y="543" text-anchor="middle" dominant-baseline="middle" font-family="Arial,sans-serif" font-size="12" fill="#1F4E79">[RF012] Relacionar</text>
  <text x="590" y="561" text-anchor="middle" dominant-baseline="middle" font-family="Arial,sans-serif" font-size="12" fill="#1F4E79">Usuário
à Movimentação</text>
  <ellipse cx="910" cy="175" rx="112" ry="27" fill="#EBF3FB" stroke="#1F4E79" stroke-width="1.6"/>
  <text x="910" y="166" text-anchor="middle" dominant-baseline="middle" font-family="Arial,sans-serif" font-size="12" fill="#1F4E79">[RF006] Cadastrar</text>
  <text x="910" y="184" text-anchor="middle" dominant-baseline="middle" font-family="Arial,sans-serif" font-size="12" fill="#1F4E79">Produto</text>
  <ellipse cx="910" cy="250" rx="112" ry="27" fill="#EBF3FB" stroke="#1F4E79" stroke-width="1.6"/>
  <text x="910" y="241" text-anchor="middle" dominant-baseline="middle" font-family="Arial,sans-serif" font-size="12" fill="#1F4E79">[RF007] Consultar</text>
  <text x="910" y="259" text-anchor="middle" dominant-baseline="middle" font-family="Arial,sans-serif" font-size="12" fill="#1F4E79">Produto</text>
  <ellipse cx="910" cy="325" rx="112" ry="27" fill="#EBF3FB" stroke="#1F4E79" stroke-width="1.6"/>
  <text x="910" y="316" text-anchor="middle" dominant-baseline="middle" font-family="Arial,sans-serif" font-size="12" fill="#1F4E79">[RF008] Atualizar</text>
  <text x="910" y="334" text-anchor="middle" dominant-baseline="middle" font-family="Arial,sans-serif" font-size="12" fill="#1F4E79">Produto</text>
  <ellipse cx="910" cy="400" rx="112" ry="27" fill="#EBF3FB" stroke="#1F4E79" stroke-width="1.6"/>
  <text x="910" y="391" text-anchor="middle" dominant-baseline="middle" font-family="Arial,sans-serif" font-size="12" fill="#1F4E79">[RF009] Excluir</text>
  <text x="910" y="409" text-anchor="middle" dominant-baseline="middle" font-family="Arial,sans-serif" font-size="12" fill="#1F4E79">Produto</text>
  <ellipse cx="980" cy="520" rx="130" ry="27" fill="#EBF3FB" stroke="#1F4E79" stroke-width="1.6"/>
  <text x="980" y="511" text-anchor="middle" dominant-baseline="middle" font-family="Arial,sans-serif" font-size="12" fill="#1F4E79">[RF013] Relatório de</text>
  <text x="980" y="529" text-anchor="middle" dominant-baseline="middle" font-family="Arial,sans-serif" font-size="12" fill="#1F4E79">Estoque</text>
  <ellipse cx="980" cy="615" rx="140" ry="27" fill="#EBF3FB" stroke="#1F4E79" stroke-width="1.6"/>
  <text x="980" y="606" text-anchor="middle" dominant-baseline="middle" font-family="Arial,sans-serif" font-size="12" fill="#1F4E79">[RF014] Relatório de</text>
  <text x="980" y="624" text-anchor="middle" dominant-baseline="middle" font-family="Arial,sans-serif" font-size="12" fill="#1F4E79">Movimentações</text>
  <ellipse cx="980" cy="710" rx="138" ry="27" fill="#EBF3FB" stroke="#1F4E79" stroke-width="1.6"/>
  <text x="980" y="701" text-anchor="middle" dominant-baseline="middle" font-family="Arial,sans-serif" font-size="12" fill="#1F4E79">[RF015] Alertar</text>
  <text x="980" y="719" text-anchor="middle" dominant-baseline="middle" font-family="Arial,sans-serif" font-size="12" fill="#1F4E79">Produtos em Risco</text>
  <circle cx="85" cy="230" r="15" fill="white" stroke="#1F4E79" stroke-width="2"/>
  <line x1="85" y1="245" x2="85" y2="277" stroke="#1F4E79" stroke-width="2"/>
  <line x1="65" y1="259" x2="105" y2="259" stroke="#1F4E79" stroke-width="2"/>
  <line x1="85" y1="277" x2="69" y2="301" stroke="#1F4E79" stroke-width="2"/>
  <line x1="85" y1="277" x2="101" y2="301" stroke="#1F4E79" stroke-width="2"/>
  <text x="85" y="319" text-anchor="middle" font-family="Arial,sans-serif" font-size="13" font-weight="bold" fill="#1F4E79">Administrador</text>
  <circle cx="85" cy="570" r="15" fill="white" stroke="#1F4E79" stroke-width="2"/>
  <line x1="85" y1="585" x2="85" y2="617" stroke="#1F4E79" stroke-width="2"/>
  <line x1="65" y1="599" x2="105" y2="599" stroke="#1F4E79" stroke-width="2"/>
  <line x1="85" y1="617" x2="69" y2="641" stroke="#1F4E79" stroke-width="2"/>
  <line x1="85" y1="617" x2="101" y2="641" stroke="#1F4E79" stroke-width="2"/>
  <text x="85" y="659" text-anchor="middle" font-family="Arial,sans-serif" font-size="13" font-weight="bold" fill="#1F4E79">Operador</text>
  <circle cx="1435" cy="555" r="15" fill="white" stroke="#1F4E79" stroke-width="2"/>
  <line x1="1435" y1="570" x2="1435" y2="602" stroke="#1F4E79" stroke-width="2"/>
  <line x1="1415" y1="584" x2="1455" y2="584" stroke="#1F4E79" stroke-width="2"/>
  <line x1="1435" y1="602" x2="1419" y2="626" stroke="#1F4E79" stroke-width="2"/>
  <line x1="1435" y1="602" x2="1451" y2="626" stroke="#1F4E79" stroke-width="2"/>
  <text x="1435" y="644" text-anchor="middle" font-family="Arial,sans-serif" font-size="13" font-weight="bold" fill="#1F4E79">Gestor</text>
  <line x1="85" y1="259" x2="620" y2="95" stroke="#4472C4" stroke-width="1.4" opacity="0.75"/>
  <line x1="85" y1="259" x2="268" y2="175" stroke="#4472C4" stroke-width="1.4" opacity="0.75"/>
  <line x1="85" y1="259" x2="268" y2="250" stroke="#4472C4" stroke-width="1.4" opacity="0.75"/>
  <line x1="85" y1="259" x2="268" y2="325" stroke="#4472C4" stroke-width="1.4" opacity="0.75"/>
  <line x1="85" y1="259" x2="268" y2="400" stroke="#4472C4" stroke-width="1.4" opacity="0.75"/>
  <line x1="85" y1="259" x2="798" y2="175" stroke="#4472C4" stroke-width="1.4" opacity="0.75"/>
  <line x1="85" y1="259" x2="798" y2="250" stroke="#4472C4" stroke-width="1.4" opacity="0.75"/>
  <line x1="85" y1="259" x2="798" y2="325" stroke="#4472C4" stroke-width="1.4" opacity="0.75"/>
  <line x1="85" y1="259" x2="798" y2="400" stroke="#4472C4" stroke-width="1.4" opacity="0.75"/>
  <line x1="85" y1="599" x2="620" y2="95" stroke="#4472C4" stroke-width="1.4" opacity="0.75"/>
  <line x1="85" y1="599" x2="268" y2="250" stroke="#4472C4" stroke-width="1.4" opacity="0.75"/>
  <line x1="85" y1="599" x2="798" y2="250" stroke="#4472C4" stroke-width="1.4" opacity="0.75"/>
  <line x1="85" y1="599" x2="215" y2="510" stroke="#4472C4" stroke-width="1.4" opacity="0.75"/>
  <line x1="85" y1="599" x2="230" y2="595" stroke="#4472C4" stroke-width="1.4" opacity="0.75"/>
  <line x1="1435" y1="584" x2="890" y2="95" stroke="#4472C4" stroke-width="1.4" opacity="0.75"/>
  <line x1="1435" y1="584" x2="1110" y2="520" stroke="#4472C4" stroke-width="1.4" opacity="0.75"/>
  <line x1="1435" y1="584" x2="1120" y2="615" stroke="#4472C4" stroke-width="1.4" opacity="0.75"/>
  <line x1="1435" y1="584" x2="1118" y2="710" stroke="#4472C4" stroke-width="1.4" opacity="0.75"/>
  <line x1="465" y1="510" x2="465" y2="552" stroke="#555" stroke-width="1.2" stroke-dasharray="6,4" marker-end="url(#markerArr)"/>
  <text x="465" y="524" text-anchor="middle" font-family="Arial,sans-serif" font-size="10" fill="#555" font-style="italic">&lt;&lt;include&gt;&gt;</text>
  <line x1="450" y1="595" x2="465" y2="552" stroke="#555" stroke-width="1.2" stroke-dasharray="6,4" marker-end="url(#markerArr)"/>
  <text x="457" y="566" text-anchor="middle" font-family="Arial,sans-serif" font-size="10" fill="#555" font-style="italic">&lt;&lt;include&gt;&gt;</text>
  <rect x="488" y="62" width="390" height="28" rx="4" fill="#FFFDE7" stroke="#E6C000" stroke-width="1"/>
  <text x="683" y="80" text-anchor="middle" font-family="Arial,sans-serif" font-size="10.5" fill="#7B6000">Nota: todas as UCs dependem de [RF001] (pré-condição global)</text>
  <text x="760" y="970" text-anchor="middle" font-family="Arial,sans-serif" font-size="11" fill="#999">Diagrama de Casos de Uso — Guardião da Cozinha v2.0 — Notação UML 2.x</text>
</svg>